<svg height="200px" width="200px" version="1.1" id="Layer_1" xmlns="http://www.w3.org/2000/svg" xmlns:xlink="http://www.w3.org/1999/xlink" viewBox="0 0 245 245" xml:space="preserve" fill="#000000"><g id="SVGRepo_bgCarrier" stroke-width="0"></g><g id="SVGRepo_tracerCarrier" stroke-linecap="round" stroke-linejoin="round"></g><g id="SVGRepo_iconCarrier"> <path d="M213.388,25.073c-24.84-15.01-52.207-22.517-81.888-22.573C62.535,2.44,1,63.213,0,132.065 c-0.342,23.32,8.539,45.424,24.332,63.141l-22.18,43.235c-1.383,2.696-0.342,5.996,2.354,7.379 c0.954,0.484,2.021,0.726,3.088,0.726c1.838,0,3.651-0.92,4.718-2.583l48.44-36.942c19.383,10.609,41.242,16.142,64.253,16.142 C181.465,223.165,244.658,163.28,245,94.428C245,68.911,233.952,44.912,213.388,25.073z M225.297,94.428 C224.955,152.003,174.529,203.4,116.5,203.4c-20.726,0-40.608-5.341-57.92-15.158l-5.698-3.238l-32.324,24.64l14.79-28.673 l-2.074-4.885c-14.816-35-1.028-76.088,31.258-97.801c34.258-22.95,79.5-16.117,106.874,12.308 C192.709,38.169,207.014,64.254,207.5,92.5c2.049-0.342,4.124-0.541,6.223-0.541 C218.842,92,223.254,92.812,225.297,94.428z"></path> <path d="M165.728,100.323c-7.53,0-13.656,5.819-13.656,12.986s6.126,12.986,13.656,12.986s13.656-5.819,13.656-12.986 S173.258,100.323,165.728,100.323z"></path> <path d="M96.771,100.323c-7.53,0-13.656,5.819-13.656,12.986s6.126,12.986,13.656,12.986c7.53,0,13.656-5.819,13.656-12.986 S104.301,100.323,96.771,100.323z"></path> </g></svg> 