<svg fill="#000000" height="200px" width="200px" version="1.1" id="XMLID_1_" xmlns="http://www.w3.org/2000/svg" xmlns:xlink="http://www.w3.org/1999/xlink" viewBox="0 0 24 24" xml:space="preserve"><path d="M12.525,0.02c0,0-0.05,0.001-0.075,0.002C12.45,0.021,12.525,0.02,12.525,0.02z M12.45,0.021 C7.896,0.212,4.212,3.921,4,8.5h4.091C8.125,6.556,9.833,5.018,11.818,5.018v4.206c0,0-0.033,0.021-0.05,0.033 c-2.182-0.05-3.955,1.691-3.955,3.876s1.773,3.926,3.955,3.876c0.017,0.012,0.05,0.033,0.05,0.033v3.421 c-4.432-0.342-7.854-4.041-7.854-8.625c0-4.755,3.773-8.654,8.445-8.985V0.02L12.45,0.021z M19.818,8.235 c-0.342,2.021-2.125,3.489-4.148,3.489v4.206c0,0,0.033-0.021,0.05-0.033c2.182,0.05,3.955-1.691,3.955-3.876 s-1.773-3.926-3.955-3.876c-0.017-0.012-0.05-0.033-0.05-0.033V4c2.574,0.3,4.68,2.44,4.9,5.018H19.818V8.235z"/></svg> 