<svg fill="#000000" height="200px" width="200px" version="1.1" id="Layer_1" xmlns="http://www.w3.org/2000/svg" xmlns:xlink="http://www.w3.org/1999/xlink" viewBox="0 0 310 310" xml:space="preserve"><g id="XMLID_834_"><path id="XMLID_835_" d="M155,0C69.52,0,0,69.52,0,155c0,46.3,20.275,88.4,53.087,117.261L3.921,306.079C3.243,308.13,4.89,310,7.012,310c0.395,0,0.79-0.059,1.173-0.181l78.13-25.396C108.062,292.44,130.68,298.66,155,298.66c85.48,0,155-69.52,155-155S240.48,0,155,0z M155,283.66c-22.638,0-44.342-6.156-63.514-17.443l-4.522-2.65-46.164,15.009l15.246-45.31-2.92-4.717C43.993,209.682,35,183.351,35,155c0-66.168,53.832-120,120-120s120,53.832,120,120S221.168,283.66,155,283.66z"/><path id="XMLID_836_" d="M222.893,189.336c-11.373-5.62-56.037-27.613-64.729-30.752c-8.692-3.139-15.02-2.936-21.346,3.139c-6.326,6.075-24.455,30.1-30.015,36.176c-5.56,6.075-11.12,6.864-20.484,3.725c-9.364-3.139-39.233-14.443-74.698-46.073c-27.817-24.816-46.687-55.459-49.344-61.536c-2.657-6.075,2.657-9.42,7.594-13.884c4.353-3.882,9.364-10.125,14.041-15.202c4.677-5.076,6.248-8.691,9.385-14.464c3.137-5.772,1.57-11.018-0.787-15.489c-2.356-4.47-21.346-51.3-29.23-70.15c-7.614-18.258-15.42-15.71-21.347-15.914c-5.341-0.203-11.314-0.305-17.287-0.305c-6.248,0-16.353,2.335-24.76,10.125C31.78,28.832,14.05,45.565,14.05,74.912c0,29.347,25.242,57.754,28.889,61.923c3.646,4.169,56.824,86.979,139.503,122.32c19.955,8.604,37.281,13.755,50.142,17.653c19.525,5.922,37.384,5.181,51.002-1.55c15.202-7.523,24.455-31.543,27.902-36.176C234.332,197.887,232.693,194.228,222.893,189.336z"/></g></svg> 